<?xml version="1.0" encoding="UTF-8" standalone="no"?>
<!-- Created with Inkscape (http://www.inkscape.org/) -->

<svg
   xmlns:dc="http://purl.org/dc/elements/1.1/"
   xmlns:cc="http://creativecommons.org/ns#"
   xmlns:rdf="http://www.w3.org/1999/02/22-rdf-syntax-ns#"
   xmlns:svg="http://www.w3.org/2000/svg"
   xmlns="http://www.w3.org/2000/svg"
   xmlns:xlink="http://www.w3.org/1999/xlink"
   xmlns:sodipodi="http://sodipodi.sourceforge.net/DTD/sodipodi-0.dtd"
   xmlns:inkscape="http://www.inkscape.org/namespaces/inkscape"
   width="744.09448819"
   height="1052.3622047"
   id="svg2"
   version="1.1"
   inkscape:version="0.47 r22583"
   sodipodi:docname="OBSIDIAN.svg">
  <defs
     id="defs4">
    <inkscape:perspective
       sodipodi:type="inkscape:persp3d"
       inkscape:vp_x="0 : 526.18109 : 1"
       inkscape:vp_y="0 : 1000 : 0"
       inkscape:vp_z="744.09448 : 526.18109 : 1"
       inkscape:persp3d-origin="372.04724 : 350.78739 : 1"
       id="perspective10" />
  </defs>
  <sodipodi:namedview
     id="base"
     pagecolor="#ffffff"
     bordercolor="#666666"
     borderopacity="1.0"
     inkscape:pageopacity="0.0"
     inkscape:pageshadow="2"
     inkscape:zoom="1.4"
     inkscape:cx="523.08357"
     inkscape:cy="888.24424"
     inkscape:document-units="px"
     inkscape:current-layer="flowRoot2816"
     showgrid="false"
     showguides="true"
     inkscape:guide-bbox="true"
     inkscape:snap-global="false"
     inkscape:window-width="1590"
     inkscape:window-height="1032"
     inkscape:window-x="-4"
     inkscape:window-y="-3"
     inkscape:window-maximized="1">
    <sodipodi:guide
       orientation="0,1"
       position="334.64286,848.21429"
       id="guide2865" />
    <sodipodi:guide
       orientation="0,1"
       position="313.14729,928.83527"
       id="guide2867" />
  </sodipodi:namedview>
  <metadata
     id="metadata7">
    <rdf:RDF>
      <cc:Work
         rdf:about="">
        <dc:format>image/svg+xml</dc:format>
        <dc:type
           rdf:resource="http://purl.org/dc/dcmitype/StillImage" />
        <dc:title></dc:title>
      </cc:Work>
    </rdf:RDF>
  </metadata>
  <g
     inkscape:label="Layer 1"
     inkscape:groupmode="layer"
     id="layer1">
    <g
       style="font-size:11px;font-style:normal;font-variant:normal;font-weight:normal;font-stretch:normal;text-indent:0;text-align:center;text-decoration:none;line-height:normal;letter-spacing:normal;word-spacing:normal;text-transform:none;direction:ltr;block-progression:tb;writing-mode:lr-tb;text-anchor:middle;color:#000000;fill:#000000;fill-opacity:1;fill-rule:nonzero;stroke:none;stroke-width:2;marker:none;visibility:visible;display:inline;overflow:visible;enable-background:accumulate;font-family:DejaVu Sans Mono;-inkscape-font-specification:Bitstream Vera Sans"
       id="flowRoot2816"
       transform="translate(-7.1323439,1.8723717)">
      <path
         d="m 178.33786,129.03294 c -1.60477,3.03584 -4.24321,4.20082 -6.36486,7.03858 0,0 0.51652,8.70615 -0.46057,12.626 -1.15199,4.032 -5.01714,10.94971 -5.01714,10.94971 0.25794,-0.0516 3.41686,7.2908 1.82601,11.41057 0.55324,5.66544 6.73986,8.82478 3.78999,21.70943 2.49207,3.06161 4.11854,5.74851 4.896,8.064 l 9.648,4.608 c 3.456,0.144 7.34401,0.576 11.088,0.576 2.19169,-2.30371 11.86218,-5.56182 12.96,-4.464 0,0 -0.54191,-7.10925 7.2,-14.256 -0.40346,-8.91372 3.03011,-15.33296 4.464,-22.32 -1.44406,-6.75244 -5.17378,-12.53752 -3.888,-22.608 -3.24308,-4.23876 -5.50568,-9.03404 -5.47199,-14.976 -0.72,-1.296 -2.73601,-2.16 -3.02401,-3.6 -4.11295,1.19637 -9.52282,-1.34809 -9.36,-1.728 0.58641,0.58641 -11.17537,2.95017 -18.432,0.72 0,0 -2.304,1.872 -2.304,1.872 m 22.752,53.424 c -0.28799,1.008 -0.72,1.872 -1.008,2.88 0,0.432 -0.72,0.864 -0.864,1.296 -0.14399,0.288 0.576,0.864 0.432,1.44 -0.57599,1.44 -2.016,3.6 -2.88,5.04 -0.43199,0.72 -0.864,1.44 -1.296,2.16 -0.86399,0.576 -1.728,0.576 -3.024,0.144 -0.57599,-0.288 -1.296,-0.72 -1.872,-1.296 -1.43999,-2.592 -1.584,-6.192 -2.88,-8.784 l -0.576,-1.008 c -2.99251,-4.75276 -4.91969,-8.70762 -2.88,-16.992 -2.5617,-6.18034 -0.66323,-11.14468 2.304,-16.416 -0.09,-3.89522 1.74402,-6.848 5.32801,-9.648 0.28799,-0.432 0.72,-1.008 1.00799,-1.584 1.152,-0.288 2.16,0 2.16,1.728 0.288,0.144 0.57601,0.432 0.864,0.72 2.1544,2.04704 3.3826,4.49336 3.024,7.488 3.69244,6.44918 5.29526,13.49892 3.312,21.456 -0.14399,4.032 -0.288,7.488 -1.152,11.376"
         style="font-size:144px;marker:none;font-family:DwarvenAxe BB;-inkscape-font-specification:DwarvenAxe BB"
         id="path2825"
         sodipodi:nodetypes="ccccccccccccccccccccccscccccccccccccc" />
      <path
         d="m 278.42604,165.69523 c -6.10059,-3.66772 -6.34994,-16.25727 -4.99943,-16.87114 0,0 -9.25656,-2.28086 -7.67257,-4.29686 0.576,-0.864 2.59201,-1.728 3.6,-2.448 1.152,-0.864 5.08629,-0.80057 6.09428,-2.09657 -3.54011,-4.68354 5.04435,-9.95727 3.34086,-20.44829 -0.14263,1.71151 -17.43238,4.26774 -20.56971,0.44372 -9.83556,3.51121 -12.38522,3.25491 -22.70543,2.22914 -2.97276,1.99385 -5.62614,2.65489 -9.072,0.72 -2.44799,0.144 -6.54343,2.70714 -6.54343,2.70714 0,0 6.97543,1.61286 6.11143,5.06886 4.37621,1.1909 4.82871,6.5517 3.168,10.944 3.61188,7.02582 3.49496,14.48474 0.144,22.464 2.34264,7.91742 4.33691,15.69908 -0.432,25.056 1.69615,2.83381 0.62581,5.66762 -1.46857,8.50143 -0.69766,1.32949 -8.71692,10.21333 -9.05514,9.706 0,0 7.93172,-2.79943 9.65971,-1.79143 1.584,-0.72 3.02401,-0.864 4.608,-0.864 1.44,0 2.88001,0.144 4.32,0.288 3.456,0.288 6.76801,0.72 10.224,0.72 1.872,0 3.45601,-0.576 5.328,-0.432 1.584,0 2.88001,0.432 4.608,0.576 3.168,0.144 7.20001,-1.152 10.08,-2.16 3.456,-1.296 6.19201,-4.608 7.776,-7.776 -3.51639,-13.30344 5.32801,-21.168 5.32801,-21.168 -0.86984,0.10873 -3.30389,-5.99502 -1.87201,-9.072 m -34.45006,-27.6356 c 0.8816,1.13956 7.29062,-7.75515 6.76177,-8.5084 -0.17857,5.17857 7.35313,10.08215 7.35313,10.08215 -0.93574,-1.16967 -9.37515,7.50804 -8.40624,8.71917 0.80316,0 -4.61647,-10.29292 -5.70866,-10.29292 z m 15.45036,43.23167 c 0,0 -5.15101,11.81991 -7.93152,14.98341 -4.12521,-5.55129 -1.77054,-14.36226 -7.23735,-20.48205 1.70297,-4.98127 5.79108,-14.89066 6.02699,-23.68699 0.50287,5.46191 3.69663,7.20149 7.0496,11.44759 -2.39213,6.78074 0.16736,18.96299 2.09228,17.73804 z"
         style="font-size:144px;marker:none;font-family:DwarvenAxe BB;-inkscape-font-specification:DwarvenAxe BB"
         id="path2827"
         sodipodi:nodetypes="cccccccccccccccccscsccccccccccccccccc" />
      <path
         d="m 310.70357,153.092 c 0.96146,0.63564 2.13272,1.15874 2.3849,2.96828 4.50625,-17.40421 13.02309,-16.79228 13.02309,-16.79228 0,0 0.14401,-1.008 0.288,-1.584 -2.88003,-5.40977 -4.19201,-9.09816 -1.67426,-19.36679 -0.3739,-0.38967 -0.11242,-1.69549 0.41837,-2.16432 -0.13376,0.13248 -1.60871,-0.29301 -1.60871,-0.62422 -0.1581,0.63238 -3.79821,0.99598 -3.72514,0.70369 0.0537,0.91363 -3.66883,3.15117 -5.0299,2.90885 -1.9715,1.70538 -6.5935,0.0329 -6.5935,0.0329 0,0 -5.264,4.78386 -14.90686,3.53386 -0.65471,1.66657 -1.84929,2.25341 -3.45599,2.016 -1.12912,4.06772 -6.80314,8.10369 -7.776,7.056 -0.0546,2.2724 1.31915,4.27339 -1.00801,7.776 0.0312,-0.37789 4.36413,2.67952 6.768,14.256 2.58133,2.85731 5.6818,5.28503 6.19201,9.792 1.9828,2.87206 5.55284,4.74804 5.90399,8.64 4.02797,3.75298 8.5747,8.62482 5.41429,14.33086 1.28987,0.40687 3.76335,2.04534 1.72228,4.62243 1.40689,3.26348 -2.782,2.59471 -2.782,2.59471 -2.78288,1.59409 -8.32952,1.93247 -7.37857,-3.116 -4.74654,-5.96151 -1.85979,-9.81854 -0.432,-14.832 -1.7594,-0.87981 -1.07933,-2.41474 -0.42185,-7.04073 -2.8962,0.35772 -3.80644,2.44211 -5.77015,5.16873 -0.126,6.80463 -5.02043,8.67976 -9.64799,8.22358 0.27197,4.9963 6.03059,7.15629 0,15.68042 2.31131,3.92544 2.12457,8.21103 1.29384,12.25773 1.008,-0.288 3.17016,-0.16173 4.17815,-0.73773 3.7729,-7.32594 10.16726,-6.07973 16.848,-4.896 0.864,0 1.29601,0.288 2.01601,0.144 0.43199,-0.144 1.008,-0.72 1.58399,-0.864 0.288,0 0.43201,0.144 0.72,0.144 0.432,0.144 0.86401,0.72 1.296,0.864 0.432,0 1.728,-0.288 1.728,-0.288 l 3.60001,0.432 c 0.71999,0.144 1.872,-0.72 2.59199,-1.584 2.16,-0.432 4.32001,-1.008 6.19201,-2.304 1.29599,-0.864 2.16,-1.872 3.024,-2.88 0.14399,-0.432 0.144,-0.864 0.144,-1.152 1.15199,-1.584 1.296,-6.912 1.296,-6.912 -1.4353,0.26096 -5.37217,-8.94271 -3.28314,-14.20129 -0.18355,0.22944 -8.22967,-3.49344 -8.52486,-9.12671 -3.97651,-2.74626 -5.15542,-7.40702 -6.48001,-11.952 -2.80108,-2.58591 -4.71864,-5.57561 -5.328,-9.072 -1.42985,-0.69216 -1.66866,-2.05935 -1.72799,-3.6 -1.23128,-1.79104 -1.4498,-3.50336 -0.2958,-6.45233 -0.40093,-0.73784 -0.16944,-1.4807 0.52963,-1.73214 0.90549,-4.34698 3.21244,-3.78168 5.95816,-3.76753 5.08436,6.32902 3.56384,15.41994 2.73601,22.896"
         style="font-size:144px;marker:none;font-family:DwarvenAxe BB;-inkscape-font-specification:DwarvenAxe BB"
         id="path2829"
         sodipodi:nodetypes="ccccccccccccccccccccccccccccccccccccccccccccccccc" />
      <path
         d="m 368.28567,205.01256 c -1.53567,-1.53829 -4.46251,-0.95739 -4.26681,-3.61802 -9.54102,-4.69439 -8.53528,-14.15121 -7.344,-22.07234 -1.39656,-5.49062 -3.36682,-11.19673 0.432,-21.1397 -1.66362,-1.41054 -1.46351,-3.20818 -0.144,-5.28493 -2.63057,-8.11852 -1.70633,-14.22496 -0.144,-20.36251 -1.52801,-4.20676 0.21793,-5.05796 3.1304,-6.4771 0.98837,-1.72111 3.4766,-2.27819 4.86162,-2.19199 0.8074,0.0502 1.26793,-1.01615 1.89858,-1.68326 -0.73334,-0.33908 -1.06962,-2.70746 -1.00021,-3.21985 -4.75153,1.49784 -4.98319,-0.15038 -7.73839,-0.26187 -3.88614,3.7468 -6.86294,1.71291 -9.936,0.15544 -3.35739,1.75276 -6.48,0 -9.504,0.15544 -2.42057,1.47676 -4.82533,1.07149 -6.77147,0.0467 0.38393,1.00931 -2.30589,2.69706 -3.69589,2.24126 0.58954,1.21273 3.34928,0.77783 3.41136,2.84154 2.90717,-0.1371 4.45675,1.36285 5.04,4.19685 3.84224,0.83246 2.63447,4.68162 2.304,7.30563 2.83344,6.31643 4.20005,12.21861 1.296,20.67339 1.74428,11.26986 5.37302,22.83607 0,33.57483 0.62529,3.09991 1.29503,9.76692 -3.31199,12.27968 -0.576,0.46631 -1.29601,0.46631 -2.16001,0.93263 -0.43199,0.31088 -0.72,1.08807 -1.152,1.24351 -0.43199,0.15544 -0.864,-0.46631 -1.44,-0.46631 -2.01599,0.46631 -1.43353,1.51611 -2.87999,4.04141 3.97141,-0.28808 6.98388,-2.85958 13.10399,-1.08807 4.9766,-2.46888 9.84417,-2.96992 15.12,0.31087 2.69509,-1.18099 4.61179,-2.5124 8.928,-1.39895"
         style="font-size:144px;marker:none;font-family:DwarvenAxe BB;-inkscape-font-specification:DwarvenAxe BB"
         id="path2831"
         sodipodi:nodetypes="cccccccsccccccccccccccsccccs" />
      <path
         d="m 425.63062,183.72879 c -1.36671,-1.63257 -4.1725,-7.61092 1.26077,-14.84562 -4.61686,-4.26131 -2.39036,-15.19949 0.89922,-17.92324 0,0 -2.94218,-0.13425 -3.00656,-6.54715 -9.95114,-4.9575 -8.39053,-21.32938 -7.24601,-26.03281 -1.94264,1.77004 -8.35493,1.34867 -8.46742,-0.77934 -6.54166,4.20066 -12.60308,2.1077 -18.72001,0.73804 -5.80755,6.00691 -22.41228,1.66498 -22.41228,1.66498 8.17268,7.90491 12.94332,12.64184 8.15629,22.63696 2.01794,5.31356 2.188,13.32389 0.28799,18.20902 3.77621,9.86975 6.61942,19.57686 -1.152,29.37389 0,1.9189 0.288,3.8378 0,5.7567 -0.4704,5.48526 -6.76799,9.29927 -6.76799,9.29927 0,0 3.744,-0.29522 5.61599,0 3.83251,-1.93984 6.73632,-2.6191 9.648,0 3.96132,-3.5585 7.59664,-2.95414 11.088,0 3.07335,-1.86239 6.3681,-3.0227 10.368,-0.29522 3.94185,-4.04082 7.22822,-2.05699 10.224,-1.77129 -0.99639,-7.55601 1.92694,-15.08523 10.22401,-19.48419 z m -18.33904,-36.19577 c -3.90104,9.94529 2.71398,21.99403 4.12065,21.5024 -7.43335,5.25181 -6.34451,14.90314 -7.69848,18.47201 -4.04136,0.14212 -6.33928,7.15397 -5.1437,7.95323 0,0 -1.53201,-2.60978 -2.108,-5.26672 -3.35713,-4.03525 -3.44169,-13.95032 -3.44169,-13.95032 -2.14657,-3.75354 -6.02091,-14.96992 0.15463,-19.04158 -2.24139,-3.34398 -1.60904,-5.99291 0.52309,-9.06483 -2.17731,-6.2952 3.87724,-9.29563 3.56884,-18.83431 2.77638,2.42693 3.39776,14.99409 10.02466,18.23012 z"
         style="font-size:144px;marker:none;font-family:DwarvenAxe BB;-inkscape-font-specification:DwarvenAxe BB"
         id="path2833"
         sodipodi:nodetypes="ccccccccccccccccccccccccccccc" />
      <path
         d="m 516.03692,198.8647 c -2.71008,-2.54589 -1.56026,-5.13429 -0.576,-7.75554 -2.63416,-3.15702 -2.8738,-6.27198 -0.28799,-10.44016 -9.62197,-10.4274 -0.48305,-25.20552 -0.48305,-25.20552 0,0 -13.08386,-18.95526 2.64304,-32.06619 1.008,-1.34231 1.71357,-3.33786 0.86401,-5.07094 -1.152,0.74573 -2.59201,0.89487 -4.03201,0.89487 -1.87199,0 -3.17371,1.73619 -5.76,-0.88895 -1.29148,0.82266 -3.22202,0.98827 -4.92334,0.86639 -1.78927,2.13014 -3.684,2.59088 -5.73266,0.0226 -3.26402,-0.10316 -6.52681,-0.14914 -9.79199,-0.14914 -3.89953,2.84048 -5.84408,0.3932 -8.64,0.44743 -0.46306,1.08983 -5.8052,1.85298 -5.91271,1.66738 2.54351,1.32716 5.72814,1.24592 7.06471,4.00014 0.28799,0.89487 -0.53571,3.23946 -2.32143,4.2894 2.72186,7.73497 -6.81429,15.7502 -6.81429,15.7502 1.8047,1.94619 1.07028,3.35846 -0.38542,4.4196 4.99428,13.04782 -3.87086,19.83689 -3.87086,19.83689 0,0 7.82852,15.39452 0.288,28.63586 -0.288,0.89487 -0.57601,1.78974 -1.29601,2.53546 -1.43999,1.34231 -5.472,3.57948 -5.472,3.57948 5.74476,-0.77253 4.28579,-0.68412 8.16956,1.01759 2.01357,-2.40161 9.72085,-1.4406 9.39844,-0.27186 0.0333,-0.37912 6.12776,-1.79382 8.78615,0.87651 0,0 -2.15894,-1.9945 0.42985,-4.75428 -0.28799,-0.14915 -0.576,-0.59658 -0.71999,-1.04402 -2.21648,-1.04401 -1.09779,-2.9829 -1.00801,-4.17606 -2.03611,-1.89091 -2.61972,-4.43009 -0.17731,-6.4316 -1.39308,-2.46261 -0.37074,-4.43239 2.62746,-3.3157 3.9758,-4.6921 9.4688,-2.98763 7.55463,2.90499 2.37537,2.76535 2.11154,4.29381 1.65923,6.09658 2.0006,5.14749 -0.57466,7.86157 -3.74401,11.03674 0,0 3.60001,0 4.89601,-0.14915 3.59999,-2.64753 7.488,-1.53509 11.23199,0.14915 2.04632,-1.09895 4.19965,-1.41799 6.91201,-0.29829 1.76198,-0.97262 0.86856,-1.9564 6.04799,-2.38632 -2.53278,-1.30494 -5.26533,-1.90292 -6.624,-4.6235 m -19.29595,-45.19096 c 4.14458,6.36706 4.28215,15.65577 0.0554,20.49466 -7.23863,-4.05312 -9.73654,-1.33176 -13.01534,-0.65836 -0.17965,-2.53395 1.26947,-5.90054 3.0283,-8.09279 -3.19435,-4.82997 2.12239,-8.23972 3.85038,-11.96835 -2.0077,-3.74764 1.53402,-10.38935 3.27008,-11.05732 1.92905,3.23362 4.23599,7.94538 2.81123,11.28216 l -5e-5,0 z"
         style="font-size:144px;marker:none;font-family:DwarvenAxe BB;-inkscape-font-specification:DwarvenAxe BB"
         id="path2837"
         sodipodi:nodetypes="ccccccscccccccccccccccccccccccccccccccccccccc" />
      <path
         d="m 584.85899,120.91085 c -0.25778,-0.42162 -13.13339,1.19765 -15.01926,-0.94702 -2.69563,1.82525 -6.21124,1.84636 -8.59674,0.51502 -2.016,0 -5.47201,-0.72 -7.34401,0.432 -0.71999,-0.864 -2.592,0 -3.6,0 -0.14399,0.144 -0.432,0.288 -0.576,0.288 l 0.37665,3.72627 c 0.53255,-0.265 3.44891,-0.79078 3.79935,0.59373 3.09449,-0.68022 6.32228,0.59086 5.30812,4.61794 3.38293,5.84234 3.69939,11.26383 1.45989,17.27006 1.7223,3.04295 0.70456,5.6733 0.288,8.064 0,0.144 -0.288,0.288 -0.288,0.432 -3.53578,-1.60008 -5.42144,-3.99 -5.76,-6.912 -4.79654,-0.30245 -6.19614,-3.56328 -6.192,-6.768 -4.13633,-3.68003 -6.42468,-8.29366 -8.06401,-12.96 -1.58399,-2.016 -3.024,-4.032 -4.464,-6.192 -0.95696,0.11981 -4.38946,-3.00669 -4.4699,-4.8148 -0.23462,0.0903 0.0244,0.47079 -0.71409,0.7828 0.26874,0.46186 0.26697,0.89366 0,1.296 -0.3519,1.64932 2.15992,6.24001 0,8.64 1.14053,0.317 0.96559,0.54506 0.57599,1.584 0.52432,1.83075 1.98966,3.33101 0,6.768 0.85952,5.53732 3.59975,11.04255 0.72,16.56 0.45873,5.91858 3.68882,12.09199 0.576,18.576 0.288,0.144 0.864,0.72 0.72001,1.008 0,0.72 -0.86401,1.152 -1.15201,1.872 2.12461,5.33959 2.19437,10.65252 -0.61361,15.15546 -0.14399,2.736 0.46961,5.72454 -2.12239,7.59654 -0.21276,3.29857 -3.88799,5.328 -3.88799,5.328 l 1.09275,0.82854 c 0.83563,-0.84612 2.53005,-2.00596 3.77168,-0.8679 5.41401,-2.65911 8.31487,-1.29817 11.55156,-0.24864 4.04312,-1.03939 7.68706,-1.76186 11.376,0.864 1.008,0 2.44801,-0.864 3.168,0 0.50338,-0.91542 1.92014,-2.02521 2.89784,-2.39301 -0.51642,-0.38879 -0.94123,-0.93182 -0.73784,-1.78299 -1.68203,0.46436 -3.31208,0.8025 -4.17599,-0.72 -1.69036,-0.21032 -2.90081,-1.99959 -2.07643,-3.58421 -3.95178,-2.51411 -3.04092,-5.1429 -2.38758,-7.64779 -2.79589,-4.83415 -2.27207,-9.29383 -0.576,-13.536 -0.28799,-1.152 -0.43199,-3.168 0,-4.032 3.83379,3.17801 8.1315,6.69356 8.78401,12.672 6.42684,4.44531 6.16178,8.90966 7.34399,13.248 1.64758,1.57404 3.80814,2.10111 4.60801,5.328 2.17152,1.14047 3.20515,3.41885 4.03199,5.472 1.31886,-2.12466 2.12829,-1.92211 3.744,-1.584 0.17622,-1.3602 -0.70796,-3.16054 0.14401,-5.472 -2.64158,-5.71621 -1.92309,-10.79068 -0.57601,-15.84 -1.43886,-4.39989 -2.09062,-8.79173 0.432,-13.68 -0.34781,-6.09741 -4.01873,-12.00995 -0.576,-19.008 -3.14023,-4.99761 -2.67945,-9.98532 0.75978,-16.43158 -1.9171,-3.80227 3.41058,-7.52561 3.41058,-7.52561 0,0 -0.65552,-2.92756 0.20847,-3.93556 0.864,-1.008 2.82118,-1.48325 2.82118,-2.63525 z"
         style="font-size:144px;marker:none;font-family:DwarvenAxe BB;-inkscape-font-specification:DwarvenAxe BB"
         id="path2839"
         sodipodi:nodetypes="ccccccccccccccccccccccccccccccccccccccccccccccccccccsc" />
      <use
         x="0"
         y="0"
         xlink:href="#path2831"
         id="use2863"
         transform="translate(94.007743,-0.83239869)"
         width="744.09448"
         height="1052.3622" />
    </g>
  </g>
</svg>
